<svg xmlns="http://www.w3.org/2000/svg" enable-background="new 0 0 64 64" viewBox="0 0 64 64" id="mail">
  <polygon fill="#8a8da9" points="3.019 34.007 11 23 53 23 60.988 34 60.988 42.349 4.261 42.349"></polygon>
  <path fill="#f09f3c" d="M53,46.883V11l-9-9H13c-1.105,0-2,0.895-2,2v42.965L53,46.883z"></path>
  <path fill="#ffb844" d="M53,35.624V11l-9-9H13c-1.105,0-2,0.895-2,2v3.888C14.88,17.281,25.351,32.315,53,35.624z"></path>
  <path fill="#f09f3c" d="M41.565,2v8.262c0,1.162,0.942,2.103,2.103,2.103H53V11l-9-9H41.565z"></path>
  <path fill="#b5b1a5" d="M21.797,45.074L4.989,34.007C3.659,33.142,2,34.287,2,35.874V60c0,1.105,0.895,2,2,2h56
			c1.105,0,2-0.895,2-2V35.685c0-1.909-2.163-2.228-2.997-1.685l-6.183,4l-10.753,6.962L21.797,45.074z"></path>
  <polygon fill="#fcca81" points="44 2 44 11 53 11"></polygon>
  <rect width="2" height="2" x="17" y="12" fill="#fff"></rect>
  <rect width="2" height="2" x="21" y="12" fill="#fff"></rect>
  <rect width="2" height="2" x="25" y="12" fill="#fff"></rect>
  <rect width="23" height="2" x="22" y="17" fill="#fff"></rect>
  <rect width="16" height="2" x="17" y="21" fill="#fff"></rect>
  <rect width="10" height="2" x="35" y="21" fill="#fff"></rect>
  <rect width="8" height="2" x="17" y="25" fill="#fff"></rect>
  <rect width="18" height="2" x="27" y="25" fill="#fff"></rect>
  <rect width="7" height="2" x="37" y="33" fill="#fff"></rect>
  <path fill="#b8bce1" d="M21.797,45.074L4.989,34.007C3.659,33.142,2,34.287,2,35.874V60c0,1.105,0.895,2,2,2h56
			c1.105,0,2-0.895,2-2V35.685c0-1.909-2.163-2.228-2.997-1.685l-6.183,4l-10.753,6.962L21.797,45.074z"></path>
  <path fill="#e2e7f7" d="M44.345,46.9L44.345,46.9l-11.069-9.415c-0.64-0.617-1.713-0.617-2.552-0.005l-8.928,7.594l0,0
			L2.586,61.414C2.948,61.776,3.448,62,4,62h56c0.551,0,1.05-0.223,1.412-0.584L44.345,46.9z"></path>
  <ellipse cx="47.37" cy="8.158" fill="#fef4e6" rx="1.373" ry="2.602" transform="rotate(-63.679 47.369 8.16)"></ellipse>
  <g>
    <path fill="#f7f7f4" d="M33.707,39.981l6.968,6.017c0.394,0.34,0.437,0.934,0.097,1.327
				c-0.34,0.393-0.934,0.437-1.327,0.097l-6.968-6.017c-0.394-0.34-0.437-0.934-0.097-1.327
				C32.719,39.685,33.313,39.642,33.707,39.981z"></path>
  </g>
  <g>
    <path fill="#f7f7f4" d="M42.348,47.579l0.945,0.802c0.394,0.34,0.437,0.934,0.097,1.327
				c-0.34,0.393-0.934,0.437-1.327,0.097l-0.945-0.802c-0.394-0.34-0.437-0.934-0.097-1.327
				C41.361,47.283,41.954,47.239,42.348,47.579z"></path>
  </g>
  <path fill="#e2e7f7" d="M59.003,34l-6.183,4l-4.433,2.87c-1.456,0.943-1.626,3.009-0.343,4.177l9.53,8.676
		C59.273,55.269,62,54.064,62,51.767V35.685C62,33.776,59.837,33.458,59.003,34z"></path>
  <ellipse cx="58.74" cy="37.678" fill="#f7f7f4" rx="1.373" ry="2.602" transform="rotate(-63.679 58.738 37.679)"></ellipse>
  <ellipse cx="56.066" cy="38.754" fill="#f7f7f4" rx=".607" ry="1.151" transform="rotate(-63.679 56.064 38.755)"></ellipse>
  <path fill="#e2e7f7" d="M8.93,51.936l10.56-8.381L4.989,34.007C4.669,33.799,4.33,33.712,4,33.715v15.839
		C4,52.098,6.938,53.517,8.93,51.936z"></path>
  <ellipse cx="14.411" cy="42.887" fill="#f7f7f4" rx="1.373" ry="2.602" transform="rotate(-63.679 14.41 42.887)"></ellipse>
  <g>
    <path d="M61.714,33.276l-7.698-10.601V11c0-0.265-0.105-0.52-0.293-0.707l-9-9C44.536,1.105,44.281,1,44.016,1h-31
		c-1.654,0-3,1.346-3,3v18.676L2.326,33.28c-0.816,0.593-1.31,1.553-1.31,2.594V60c0,1.654,1.346,3,3,3h56c1.654,0,3-1.346,3-3
		V35.686C63.016,34.656,62.535,33.798,61.714,33.276z M3.625,34.819c0.197-0.107,0.501-0.19,0.83,0.023L20.15,45.176L3.016,59.749
		V35.875C3.016,35.434,3.255,35.02,3.625,34.819z M31.331,38.288c0.44-0.32,0.985-0.356,1.314-0.041L59.395,61H4.632L31.331,38.288z
		 M43.754,45.072l9.626-6.233l0,0l6.185-4.001c0.122-0.079,0.621-0.147,1.034,0.077c0.29,0.157,0.418,0.395,0.418,0.771v24.068
		L43.754,45.072z M45.016,4.414L50.602,10h-5.586V4.414z M52.761,37.883l0.208,0.322L52.761,37.883L52.761,37.883z M58.996,32.935
		c-0.183,0.062-0.366,0.125-0.52,0.225l-4.459,2.885v-9.967L58.996,32.935z M13.016,3h30v8c0,0.552,0.448,1,1,1h8v25.34l-9.853,6.38
		l-8.176-6.954c-0.989-0.954-2.603-0.994-3.894-0.047l-8.357,7.108l-9.72-6.401V4C12.016,3.449,12.465,3,13.016,3z M10.016,36.109
		L5.55,33.168c-0.159-0.103-0.33-0.169-0.5-0.238l4.966-6.848V36.109z"></path>
    <rect width="2" height="2" x="17.016" y="12"></rect>
    <rect width="2" height="2" x="21.016" y="12"></rect>
    <rect width="2" height="2" x="25.016" y="12"></rect>
    <rect width="23" height="2" x="22.016" y="17"></rect>
    <rect width="16" height="2" x="17.016" y="21"></rect>
    <rect width="10" height="2" x="35.016" y="21"></rect>
    <rect width="8" height="2" x="17.016" y="25"></rect>
    <rect width="18" height="2" x="27.016" y="25"></rect>
    <rect width="7" height="2" x="37.016" y="33"></rect>
  </g>
</svg>
