<svg xmlns="http://www.w3.org/2000/svg" viewBox="0 0 64 64" id="laptop-security">
  <path fill="#e6e7e8" d="M56,8H8a4,4,0,0,0-4,4V48.54A4,4,0,0,1,6,48H20v3H44V48H58a4,4,0,0,1,2,.54V12A4,4,0,0,0,56,8ZM32,43c-9.12-4.35-11.72-13.74-13-24.14a20.4,20.4,0,0,0,13-4.14,20.4,20.4,0,0,0,13,4.14C43.72,29.26,41.12,38.65,32,43Z"></path>
  <path fill="#ee161f" d="M45,18.86C43.72,29.26,41.12,38.65,32,43c-9.12-4.35-11.72-13.74-13-24.14a20.4,20.4,0,0,0,13-4.14A20.4,20.4,0,0,0,45,18.86Z"></path>
  <path fill="#00459a" d="M62,52a4,4,0,0,1-4,4H6a4,4,0,0,1-2.83-6.83A4.23,4.23,0,0,1,4,48.54,4,4,0,0,1,6,48H20v3H44V48H58a4,4,0,0,1,4,4Z"></path>
  <path d="M31.14,44.81a2,2,0,0,0,1.72,0C43.09,39.92,45.7,29.57,47,19.1a2,2,0,0,0-2-2.24h0a18.33,18.33,0,0,1-11.76-3.72,2,2,0,0,0-2.46,0,18.29,18.29,0,0,1-11.66,3.72H19a2,2,0,0,0-2,2.24C18.3,29.57,20.91,39.92,31.14,44.81ZM32,17.18a22.13,22.13,0,0,0,10.73,3.6C41.53,29,39.16,36.85,32,40.76c-7.16-3.91-9.53-11.74-10.73-20A22.13,22.13,0,0,0,32,17.18Z"></path>
  <path d="M62,47.54V12a6,6,0,0,0-6-6H8a6,6,0,0,0-6,6V47.54a2.73,2.73,0,0,0-.25.23A6,6,0,0,0,6,58H58a6,6,0,0,0,4-10.46ZM6,12a2,2,0,0,1,2-2H56a2,2,0,0,1,2,2V46H44a2,2,0,0,0-2,2v1H22V48a2,2,0,0,0-2-2H6ZM59.43,53.41A2,2,0,0,1,58,54H6a2,2,0,0,1-2-2,2,2,0,0,1,2-2H18v1a2,2,0,0,0,2,2H44a2,2,0,0,0,2-2V50H58a2,2,0,0,1,2,2A2,2,0,0,1,59.43,53.41Z"></path>
</svg>
