<svg xmlns="http://www.w3.org/2000/svg" id="worldwide-shipping" viewBox="0 0 48 48">
  <circle cx="24" cy="24" r="21" fill="#47caf0" stroke-width="0"></circle>
  <path fill="#20aee1" stroke-width="0" d="M45 24a21 21 0 0 1-2 8.96C39.64 40.08 32.4 45 24 45c-.43 0-.85-.01-1.27-.04-7.81-.46-14.47-5.2-17.68-11.9C8.7 37.89 14.48 41 21 41c.33 0 .67-.01 1-.03V29c0-1.65 1.35-3 3-3h15q.18 0 .36.03c.42-1.61.64-3.29.64-5.03 0-6.52-3.11-12.3-7.94-15.95C40.12 8.43 45 15.64 45 24"></path>
  <rect width="19" height="18" x="26" y="27" fill="#ffc343" stroke-width="0" rx="2" ry="2"></rect>
  <path fill="#ffa221" stroke-width="0" d="M43.5 42h-16c-.601 0-1.133-.27-1.5-.69V43a2 2 0 0 0 2 2h15a2 2 0 0 0 2-2v-1.69c-.367.419-.899.69-1.5.69"></path>
  <path fill="#ff8200" stroke-width="0" d="M33 27v3.5a.5.5 0 0 0 .5.5h4a.5.5 0 0 0 .5-.5V27z"></path>
  <path fill="#08105e" stroke-width="0" d="M46 24c0-12.13-9.87-22-22-22S2 11.87 2 24s9.87 22 22 22c.979 0 1.945-.075 2.929-.206.334.128.693.206 1.071.206h15c1.654 0 3-1.346 3-3V29c0-.481-.125-.93-.327-1.334C45.879 26.47 46 25.242 46 24m-3 2h-4.067c.039-.674.067-1.344.067-2a32 32 0 0 0-.257-4h4.854c.263 1.293.403 2.63.403 4 0 .726-.055 1.438-.133 2.143A3 3 0 0 0 43 26M4.922 30h4.657c.417 2.151 1.047 4.17 1.863 6H8.037a19.9 19.9 0 0 1-3.115-6m3.115-18h3.405c-.816 1.83-1.446 3.849-1.863 6H4.922a19.9 19.9 0 0 1 3.115-6m35.041 6h-4.657c-.417-2.151-1.047-4.17-1.863-6h3.405a19.9 19.9 0 0 1 3.115 6m-6.677 0h-6.607a67 67 0 0 0-.67-6h5.252a25 25 0 0 1 2.025 6m-8.611 0h-7.58c.16-2.258.4-4.271.695-6h6.19c.295 1.729.535 3.742.695 6m.972-8c-.453-2.179-1.036-4.049-1.75-5.437 2.416.886 4.573 2.797 6.258 5.437zm-2.06 0h-5.404c.863-3.927 1.968-6 2.702-6s1.838 2.073 2.702 6m-5.713-5.437c-.715 1.387-1.298 3.258-1.75 5.437h-4.508c1.685-2.64 3.842-4.551 6.258-5.437M18.876 12a67 67 0 0 0-.67 6h-6.607a25 25 0 0 1 2.025-6zM11 24c0-1.37.091-2.707.262-4h6.831c-.06 1.33-.093 2.671-.093 4s.033 2.67.093 4h-6.831A30.5 30.5 0 0 1 11 24m-1.743-4C9.093 21.299 9 22.633 9 24s.094 2.701.257 4H4.403a20.05 20.05 0 0 1 0-8zm2.342 10h6.607c.144 2.094.367 4.124.67 6h-5.252a25 25 0 0 1-2.025-6M25 36h-4.095c-.295-1.729-.535-3.742-.695-6H25zm-5.762 2c.453 2.179 1.036 4.049 1.75 5.437-2.416-.886-4.573-2.797-6.258-5.437zm2.06 0H25v4.977c-.469.798-.844 1.023-1 1.023-.734 0-1.838-2.073-2.702-6m3.886-10h-5.091c-.057-1.267-.094-2.592-.094-4s.036-2.733.094-4h7.812a89 89 0 0 1 .094 4c0 .681-.019 1.34-.034 2.003A2.99 2.99 0 0 0 25.183 28Zm4.723-8h6.831A30.5 30.5 0 0 1 37 24c0 .655-.031 1.326-.076 2h-6.957c.015-.662.033-1.32.033-2 0-1.329-.033-2.67-.093-4M34 28h3v2h-3zm4.26-18h-2.711c-.868-1.538-1.87-2.904-2.989-4.049A20.1 20.1 0 0 1 38.26 10M15.439 5.951C14.321 7.096 13.318 8.462 12.45 10H9.739a20 20 0 0 1 5.7-4.049M9.74 38h2.711c.868 1.538 1.87 2.904 2.989 4.049A20 20 0 0 1 9.741 38ZM44 43c0 .552-.449 1-1 1H28c-.551 0-1-.448-1-1V29c0-.552.449-1 1-1h4v2.5c0 .827.673 1.5 1.5 1.5h4c.827 0 1.5-.673 1.5-1.5V28h4c.551 0 1 .448 1 1z"></path>
  <path fill="#08105e" stroke-width="0" d="M33 40h-3a1 1 0 1 0 0 2h3a1 1 0 1 0 0-2"></path>
</svg>
