<svg xmlns="http://www.w3.org/2000/svg" viewBox="0 0 64 64" id="budget">
  <path fill="#ccd3eb" d="M44 3H12a3 3 0 0 0-3 3v20a1 1 0 0 0 1 1h36a1 1 0 0 0 1-1V6a3 3 0 0 0-3-3Z"></path>
  <path fill="#ccd3eb" d="M41 18v42a1 1 0 0 1-1 1H6a3 3 0 0 1-3-3V10a3 3 0 0 1 3-3h24a1 1 0 0 1 .71.29l10 10A1 1 0 0 1 41 18Z"></path>
  <path fill="#f5f7ff" d="M41 18v39H18A10 10 0 0 1 8 47V7h22a1 1 0 0 1 .71.29l10 10A1 1 0 0 1 41 18Z"></path>
  <path fill="#fe9661" d="M22 17a10 10 0 1 0 10 10 10 10 0 0 0-10-10Zm0 18a8 8 0 1 1 8-8 8 8 0 0 1-8 8Z"></path>
  <circle cx="22" cy="27" r="8" fill="#0074ff"></circle>
  <path fill="#647499" d="M34 44H11a1 1 0 0 1 0-2h23a1 1 0 0 1 0 2zm0 6H11a1 1 0 0 1 0-2h23a1 1 0 0 1 0 2zm0 6H11a1 1 0 0 1 0-2h23a1 1 0 0 1 0 2z"></path>
  <rect width="28" height="36" x="33" y="25" fill="#96a1c3" rx="5" ry="5"></rect>
  <rect width="18" height="10" x="38" y="29" fill="#ccd3eb" rx="3" ry="3"></rect>
  <path fill="#f0f7fc" d="M56 32v4H44a3 3 0 0 1-3-3v-4h12a3 3 0 0 1 3 3Z"></path>
  <circle cx="42" cy="45" r="3" fill="#ccd3eb"></circle>
  <circle cx="52" cy="45" r="3" fill="#ccd3eb"></circle>
  <circle cx="42" cy="54" r="3" fill="#ccd3eb"></circle>
  <circle cx="52" cy="54" r="3" fill="#ccd3eb"></circle>
  <path fill="#96a1c3" d="m40.71 17.29-10-10a1 1 0 0 0-1.09-.21A1 1 0 0 0 29 8v7.93A3 3 0 0 0 32 19h8a1 1 0 0 0 .92-.62 1 1 0 0 0-.21-1.09Z"></path>
  <path fill="#f0f7fc" d="M22.5 26h-1a.5.5 0 0 1 0-1H24a1 1 0 0 0 0-2h-1v-1a1 1 0 0 0-2 0v1.05a2.5 2.5 0 0 0 .5 4.95h1a.5.5 0 0 1 0 1H20a1 1 0 0 0 0 2h1v1a1 1 0 0 0 2 0v-1a2.5 2.5 0 0 0-.5-5Z"></path>
  <path fill="#033c59" d="M46 14a1 1 0 0 0-1 1v1a1 1 0 0 0 2 0v-1a1 1 0 0 0-1-1zM22 37a10 10 0 1 0-10-10 10 10 0 0 0 10 10zm0-18a8 8 0 1 1-8 8 8 8 0 0 1 8-8z"></path>
  <path fill="#033c59" d="M56 25h-9v-5a1 1 0 0 0-2 0v5h-4v-7a1 1 0 0 0-.08-.38.93.93 0 0 0-.21-.33l-10-10a.93.93 0 0 0-.33-.21A1 1 0 0 0 30 7H11V6a1 1 0 0 1 1-1h32a1 1 0 0 1 1 1v5a1 1 0 0 0 2 0V6a3 3 0 0 0-3-3H12a3 3 0 0 0-3 3v1H6a3 3 0 0 0-3 3v48a3 3 0 0 0 3 3h31.25a.86.86 0 0 0 .27 0 3.91 3.91 0 0 0 .48 0h18a5 5 0 0 0 5-5V30a5 5 0 0 0-5-5ZM31 10.41 37.59 17H32a1 1 0 0 1-1-1.07ZM33 56a4.92 4.92 0 0 0 1 3H6a1 1 0 0 1-1-1V10a1 1 0 0 1 1-1h23v6.93A3 3 0 0 0 32 19h7v6h-1a5 5 0 0 0-5 5v26Zm0-6v4m0-10v4m26 8a3 3 0 0 1-3 3H38a3 3 0 0 1-3-3V30a3 3 0 0 1 3-3h18a3 3 0 0 1 3 3Z"></path>
  <path fill="#033c59" d="M53 29H41a3 3 0 0 0-3 3v4a3 3 0 0 0 3 3h12a3 3 0 0 0 3-3v-4a3 3 0 0 0-3-3zm1 7a1 1 0 0 1-1 1H41a1 1 0 0 1-1-1v-4a1 1 0 0 1 1-1h12a1 1 0 0 1 1 1zm-12 6a3 3 0 1 0 3 3 3 3 0 0 0-3-3zm0 4a1 1 0 1 1 1-1 1 1 0 0 1-1 1zm10-4a3 3 0 1 0 3 3 3 3 0 0 0-3-3zm0 4a1 1 0 1 1 1-1 1 1 0 0 1-1 1zm-10 5a3 3 0 1 0 3 3 3 3 0 0 0-3-3zm0 4a1 1 0 1 1 1-1 1 1 0 0 1-1 1zm10-4a3 3 0 1 0 3 3 3 3 0 0 0-3-3zm0 4a1 1 0 1 1 1-1 1 1 0 0 1-1 1z"></path>
</svg>
