<svg xmlns="http://www.w3.org/2000/svg" viewBox="0 0 512 512" id="police-badge">
  <path fill="#9cd3ef" d="M483.355,120.806,412.077,34.02S311.882,106.718,256,28.645C200.118,106.718,99.924,34.02,99.924,34.02L28.645,120.806c39.812,26.286,52,57.371,54.233,81.884C84.5,220.537,80.509,238.4,72.35,254.36q-.954,1.866-1.846,3.713C44.278,312.407,60.1,377.873,107.575,415.1,169.542,463.684,256,483.355,256,483.355s86.458-19.671,148.425-68.256c47.478-37.226,63.3-102.692,37.071-157.026q-.891-1.846-1.846-3.713c-8.158-15.957-12.154-33.823-10.527-51.67C431.357,178.177,443.544,147.092,483.355,120.806Z"></path>
  <path fill="#c6ebf7" d="M70.5,258.073a126.557,126.557,0,0,0-9.672,28.109,182.593,182.593,0,0,0,150.353-179.71,182.928,182.928,0,0,0-5.251-43.588C154.768,73.8,99.924,34.02,99.924,34.02L28.645,120.806c39.812,26.286,52,57.371,54.233,81.884C84.5,220.537,80.509,238.4,72.35,254.36Q71.4,256.226,70.5,258.073Z"></path>
  <path fill="#67acc1" d="M256,28.645v454.71s86.459-19.672,148.425-68.256c47.478-37.226,63.3-102.692,37.071-157.026q-.891-1.846-1.846-3.713c-8.158-15.957-12.154-33.823-10.527-51.67,2.234-24.513,14.421-55.6,54.232-81.884L412.077,34.02S311.883,106.718,256,28.645Z"></path>
  <path fill="#fff" d="M418.29,120.977,395.244,93.186C313.9,134.533,256,89.8,256,89.8s-57.9,44.736-139.244,3.389L93.71,120.977s49.481,42.7,43.381,105.741c0,0-1.267,9.608-4.373,24.089a227.548,227.548,0,0,1-10.6,34.8c-6.941,17.826-15.667,59.729,34.641,95.386A150.234,150.234,0,0,0,184.35,396.27c15.543,6.687,47.137,19.736,71.65,26.339,24.513-6.6,56.108-19.652,71.65-26.339a150.234,150.234,0,0,0,27.592-15.276c50.308-35.657,41.582-77.56,34.641-95.386a227.548,227.548,0,0,1-10.6-34.8c-3.106-14.481-4.373-24.089-4.373-24.089C368.809,163.68,418.29,120.977,418.29,120.977Z"></path>
  <polygon fill="#ffc880" points="256 297.429 204.855 324.318 214.623 267.367 173.246 227.035 230.428 218.726 256 166.911 281.572 218.726 338.754 227.035 297.377 267.367 307.145 324.318 256 297.429"></polygon>
  <polygon fill="#eaaa5e" points="281.572 218.726 256 166.911 256 166.911 256 297.429 256 297.429 307.145 324.318 297.377 267.367 338.754 227.035 281.572 218.726"></polygon>
  <path fill="#333" d="M416.476,30.406a5.7,5.7,0,0,0-7.74-1c-.5.364-50.779,36.284-97.8,28.614C290.727,54.73,273.8,43.73,260.629,25.33a5.619,5.619,0,0,0-.556-.653c-.041-.042-.084-.082-.127-.123a5.656,5.656,0,0,0-1.632-1.1c-.058-.026-.115-.053-.174-.077a5.616,5.616,0,0,0-.929-.288c-.055-.012-.11-.02-.166-.03a5.156,5.156,0,0,0-2.09,0c-.056.01-.111.018-.166.03a5.616,5.616,0,0,0-.929.288c-.059.024-.116.051-.174.077a5.656,5.656,0,0,0-1.632,1.1c-.043.041-.086.081-.127.123a5.619,5.619,0,0,0-.556.653c-13.171,18.4-30.1,29.4-50.312,32.694-47.014,7.655-97.292-28.249-97.791-28.611a5.693,5.693,0,0,0-7.743.993l-71.28,86.787a5.692,5.692,0,0,0,1.263,8.364c31.505,20.8,48.9,46.926,51.7,77.649,1.475,16.184-1.958,32.976-9.927,48.563q-.984,1.923-1.905,3.829a133.591,133.591,0,0,0-9.514,88.72,135.954,135.954,0,0,0,48.2,75.261c62.256,48.812,147.093,68.514,150.674,69.328a5.688,5.688,0,0,0,2.526,0c3.581-.814,88.419-20.516,150.674-69.328a135.954,135.954,0,0,0,48.2-75.261,133.583,133.583,0,0,0-9.514-88.718q-.919-1.906-1.905-3.832c-7.969-15.587-11.4-32.379-9.927-48.562,2.8-30.723,20.194-56.847,51.7-77.649a5.692,5.692,0,0,0,1.263-8.364Zm6.977,171.766c-1.67,18.33,2.178,37.272,11.129,54.781q.924,1.806,1.787,3.6c24.808,51.4,9.9,114.511-35.458,150.071C344.725,454.672,266.835,474.848,256,477.5c-10.836-2.65-88.67-22.787-144.91-66.883-45.354-35.56-60.266-98.674-35.459-150.068q.865-1.791,1.789-3.6c8.95-17.5,12.8-36.448,11.128-54.78-2.062-22.628-12.8-54.9-51.564-82.548l64.043-77.976c13.961,9.082,58.1,34.719,101.812,27.622a83.745,83.745,0,0,0,47.469-24.931V68.62a5.693,5.693,0,1,0,11.386,0V44.339A83.745,83.745,0,0,0,309.162,69.27c43.71,7.09,87.855-18.544,101.812-27.622l64.043,77.976C436.253,147.274,425.515,179.545,423.453,202.172Z"></path>
  <path fill="#333" d="M392.665,88.111c-32.293,16.415-64.481,20.952-95.668,13.482-23.346-5.591-37.387-16.2-37.517-16.3a5.691,5.691,0,0,0-6.96,0c-.551.426-55.948,42.079-133.184,2.819a5.692,5.692,0,0,0-6.962,1.44L89.327,117.343a5.7,5.7,0,0,0,.663,7.945c.472.407,47.127,41.416,41.445,100.776-.138,1.007-1.427,10.231-4.283,23.549a223.062,223.062,0,0,1-10.34,33.93c-6.984,17.936-17.392,63.79,36.654,102.1A156.461,156.461,0,0,0,182.1,401.5c15.554,6.692,44.325,18.542,68.207,25.428v30.931a5.693,5.693,0,1,0,11.386,0V426.928c23.882-6.886,52.653-18.736,68.206-25.428a156.438,156.438,0,0,0,28.635-15.861c54.048-38.308,43.638-84.16,36.654-102.1a223.175,223.175,0,0,1-10.34-33.93c-2.855-13.315-4.144-22.536-4.282-23.548-5.66-59.125,40.88-100.287,41.447-100.78a5.7,5.7,0,0,0,.66-7.942L399.627,89.551A5.7,5.7,0,0,0,392.665,88.111ZM369.243,227.267c.006.066.014.129.022.195.053.4,1.332,10,4.45,24.539a234.639,234.639,0,0,0,10.862,35.673c7.471,19.185,13.167,56.217-32.627,88.675a145.084,145.084,0,0,1-26.55,14.69c-15.867,6.828-45.694,19.109-69.4,25.668-23.706-6.559-53.533-18.84-69.4-25.668a145.084,145.084,0,0,1-26.55-14.69c-45.792-32.456-40.1-69.488-32.627-88.675A234.526,234.526,0,0,0,138.285,252c3.118-14.537,4.4-24.137,4.45-24.538.009-.065.016-.13.023-.2,5.325-55.032-29.1-94.636-41.258-106.765l16.769-20.222c41.8,19.99,77.277,17.784,99.962,12.248A125.6,125.6,0,0,0,256,96.712a125.608,125.608,0,0,0,37.77,15.816c22.681,5.535,58.161,7.745,99.962-12.248L410.5,120.5C398.344,132.631,363.917,172.235,369.243,227.267Z"></path>
  <path fill="#333" d="M339.573,221.4l-54.22-7.88-24.248-49.131a5.692,5.692,0,0,0-10.21,0l-24.248,49.131-54.22,7.88a5.692,5.692,0,0,0-3.155,9.71l39.234,38.243-9.262,54a5.694,5.694,0,0,0,8.26,6l48.5-25.5,48.5,25.5a5.694,5.694,0,0,0,8.26-6l-9.262-54,39.234-38.243a5.692,5.692,0,0,0-3.155-9.71ZM293.4,263.29a5.692,5.692,0,0,0-1.637,5.039l7.818,45.581-40.935-21.52a5.7,5.7,0,0,0-5.3,0l-40.935,21.52,7.818-45.581a5.692,5.692,0,0,0-1.637-5.039l-33.116-32.28,45.766-6.651a5.688,5.688,0,0,0,4.286-3.113L256,179.774l20.468,41.472a5.688,5.688,0,0,0,4.286,3.113l45.766,6.651Z"></path>
</svg>
